<svg xmlns="http://www.w3.org/2000/svg" viewBox="0 0 1024 1024">
  <defs>
    <linearGradient id="bg" x1="148" y1="128" x2="868" y2="912" gradientUnits="userSpaceOnUse">
      <stop offset="0" stop-color="#17212A" />
      <stop offset="0.52" stop-color="#25323D" />
      <stop offset="1" stop-color="#334352" />
    </linearGradient>
    <radialGradient id="auraWarm" cx="0" cy="0" r="1" gradientUnits="userSpaceOnUse"
      gradientTransform="translate(776 822) rotate(148) scale(474 378)">
      <stop offset="0" stop-color="#E2A052" stop-opacity="0.34" />
      <stop offset="1" stop-color="#E2A052" stop-opacity="0" />
    </radialGradient>
    <radialGradient id="auraCool" cx="0" cy="0" r="1" gradientUnits="userSpaceOnUse"
      gradientTransform="translate(300 224) rotate(43) scale(368 278)">
      <stop offset="0" stop-color="#95F0E0" stop-opacity="0.26" />
      <stop offset="1" stop-color="#95F0E0" stop-opacity="0" />
    </radialGradient>
    <linearGradient id="backCard" x1="464" y1="238" x2="756" y2="608" gradientUnits="userSpaceOnUse">
      <stop offset="0" stop-color="#F3C57A" />
      <stop offset="0.4" stop-color="#CB8743" />
      <stop offset="1" stop-color="#91511B" />
    </linearGradient>
    <linearGradient id="frontCard" x1="318" y1="330" x2="626" y2="780" gradientUnits="userSpaceOnUse">
      <stop offset="0" stop-color="#FFF8EA" />
      <stop offset="0.45" stop-color="#F2D29C" />
      <stop offset="1" stop-color="#C7924E" />
    </linearGradient>
    <linearGradient id="frontEdge" x1="390" y1="364" x2="550" y2="548" gradientUnits="userSpaceOnUse">
      <stop offset="0" stop-color="#FFFFFF" stop-opacity="0.9" />
      <stop offset="1" stop-color="#FFFFFF" stop-opacity="0" />
    </linearGradient>
    <linearGradient id="backGlow" x1="608" y1="218" x2="704" y2="420" gradientUnits="userSpaceOnUse">
      <stop offset="0" stop-color="#9CF5E3" stop-opacity="0.92" />
      <stop offset="1" stop-color="#9CF5E3" stop-opacity="0" />
    </linearGradient>
    <filter id="softShadow" x="-20%" y="-20%" width="140%" height="160%">
      <feDropShadow dx="0" dy="28" stdDeviation="28" flood-color="#06090D" flood-opacity="0.42" />
    </filter>
    <filter id="frontShadow" x="-20%" y="-20%" width="160%" height="180%">
      <feDropShadow dx="0" dy="30" stdDeviation="26" flood-color="#070B10" flood-opacity="0.5" />
    </filter>
  </defs>

  <rect x="72" y="72" width="880" height="880" rx="236" fill="url(#bg)" />
  <rect x="72" y="72" width="880" height="880" rx="236" fill="url(#auraWarm)" />
  <rect x="72" y="72" width="880" height="880" rx="236" fill="url(#auraCool)" />
  <rect x="72" y="72" width="880" height="880" rx="236" stroke="#FFFFFF" stroke-opacity="0.08" />

  <g opacity="0.72">
    <path d="M182 238C252 162 382 116 502 116" stroke="#FFFFFF" stroke-opacity="0.09" stroke-width="18"
      stroke-linecap="round" />
    <path d="M844 760C764 844 634 898 502 898" stroke="#FFFFFF" stroke-opacity="0.07" stroke-width="14"
      stroke-linecap="round" />
  </g>

  <g filter="url(#softShadow)" transform="rotate(-13 644 404)">
    <rect x="492" y="208" width="286" height="366" rx="92" fill="url(#backCard)" />
    <rect x="492" y="208" width="286" height="366" rx="92" stroke="#FFF8E9" stroke-opacity="0.2" />
    <path d="M698 224C740 264 759 316 762 372" stroke="url(#backGlow)" stroke-width="18"
      stroke-linecap="round" />
  </g>

  <g filter="url(#frontShadow)" transform="rotate(11 458 556)">
    <rect x="270" y="300" width="372" height="470" rx="118" fill="url(#frontCard)" />
    <rect x="270" y="300" width="372" height="470" rx="118" stroke="#FFFFFF" stroke-opacity="0.18" />
    <rect x="356" y="396" width="196" height="298" rx="72" fill="#21303B" />
    <rect x="548" y="318" width="116" height="108" rx="32" fill="#21303B" />
  </g>

  <g transform="rotate(11 458 556)">
    <path d="M330 358C374 320 442 296 514 296" stroke="url(#frontEdge)" stroke-width="22"
      stroke-linecap="round" />
    <path d="M294 648C304 730 366 774 460 774" stroke="#FFFFFF" stroke-opacity="0.14" stroke-width="14"
      stroke-linecap="round" />
  </g>

  <circle cx="734" cy="266" r="12" fill="#B3FFF2" fill-opacity="0.82" />
</svg>
